# xmcd
#
# Track frame offsets:
#	150
#	17788
#	35629
#	57965
#	75381
#	89212
#	103220
#	123006
#	138529
#	156173
#	170716
#	189797
#	203891
#	222217
#	247425
#	266924
#	282920
#	295311
#
# Disc length: 4169 seconds
#
# Revision: 0
# Processed by: cddbd v1.5.2PL0 Copyright (c) Steve Scherf et al.
# Submitted via: EasyCDDAExtractor 15.3.0.1
#
DISCID=19104712
DTITLE=Yuri - Lo Esencial De Yuri - CD 1
DYEAR=2010
DGENRE=Latin
TTITLE0=Maldita Primavera
TTITLE1=Cuando Baja La Marea
TTITLE2=Quien Eres Tu (Quem E Voce) (Love Will Lead You Back)
TTITLE3=Es Ella Mas Que Yo
TTITLE4=Que Te Pasa
TTITLE5=Y Ahora Juntos (Con Oscar Athie)
TTITLE6=Amiga Mia
TTITLE7=Es Inutil Ya
TTITLE8=Decir Adios (A Traves De Los Años) (As Time Goes By)
TTITLE9=Mi Vecina
TTITLE10=Poligamia
TTITLE11=Embrujada (Estoy)
TTITLE12=Esperanzas
TTITLE13=Popurri Juan Gabriel (Tarde, La Diferencia, Te Voy A Olvidar) (A Duet
TTITLE13=o Con Pandora)
TTITLE14=Y Llegaste Tu (Con Mijares)
TTITLE15=Que No Quede Huella (Con Lupe Esparza)
TTITLE16=El Cascabel
TTITLE17=Lo Poquito Que Me Queda
EXTD=
EXTT0=
EXTT1=
EXTT2=
EXTT3=
EXTT4=
EXTT5=
EXTT6=
EXTT7=
EXTT8=
EXTT9=
EXTT10=
EXTT11=
EXTT12=
EXTT13=
EXTT14=
EXTT15=
EXTT16=
EXTT17=
PLAYORDER=
